<svg version="1.1" id="chapa-icon" xmlns="http://www.w3.org/2000/svg" xmlns:xlink="http://www.w3.org/1999/xlink" x="0px" y="0px" viewBox="0 0 32 32" xml:space="preserve">
  <path fill="#7dc400" d="M5.5,13.1h11.8l0,0c0,1.8-1.5,3.3-3.3,3.3H5.9c-0.9,0-1.7-0.8-1.7-1.7C4.3,13.9,4.8,13.1,5.5,13.1z"/>
  <path fill="#7dc400" d="M17.6,8.8l-2.4,3.3h3.1c1.8,0,3.3-1.5,3.3-3.3H17.6z"/>
  <path fill="#7dc400" d="M11.2,12l2.3-3.2H5.9C8.2,8.8,10.2,10.1,11.2,12z"/>
  <path fill="#7dc400" d="M13.6,8.7L11.2,12l-0.8,1.1l-2.5,3.4c-1,1.1-2.7,1.3-3.8,0.3s-1.3-2.7-0.3-3.8c0.5-0.6,1.2-0.9,2-1h5.4c-1-2-3.1-3.2-5.3-3.2C2.3,9-0.2,11.8,0,15.1s3,5.8,6.3,5.6c1.7-0.1,3.3-1,4.3-2.3l3.6-5l2.4-3.3c0.6-0.8-0.2-1.9-1.1-1.3C14.8,8.2,14.1,8.4,13.6,8.7z"/>
  <circle fill="#7dc400" cx="20" cy="16" r="4"/>
  <circle fill="#7dc400" cx="24" cy="20" r="3"/>
</svg>
