<!-- This is a simplified icon-only version for better visibility in browser tabs -->
<svg version="1.1" xmlns="http://www.w3.org/2000/svg" viewBox="0 0 32 32" width="32" height="32">
  <!-- Chapa icon with better contrast and simplified for small sizes -->
  <rect width="32" height="32" fill="white" rx="4"/>
  <g transform="scale(0.7) translate(3, 3)">
    <path fill="#8dc63f" opacity="0.8" d="M11.8,26.2h23.5c0,3.6-2.9,6.5-6.5,6.5h-17c-1.8,0-3.3-1.5-3.3-3.3C8.6,27.7,10,26.2,11.8,26.2z"/>
    <path fill="#8dc63f" opacity="0.8" d="M35.1,17.6l-4.7,6.5h6.2c3.6,0,6.5-2.9,6.5-6.5H35.1z"/>
    <path fill="#8dc63f" opacity="0.8" d="M22.4,24l4.6-6.4H11.9C16.3,17.6,20.4,20.1,22.4,24z"/>
    <path fill="#7dc400" d="M27.2,17.4L22.4,24l-1.5,2.1l-4.9,6.7c-1.9,2.2-5.3,2.5-7.5,0.6S5.9,28.2,7.8,26c1-1.1,2.4-1.8,3.9-1.9h10.7c-2-3.9-6.1-6.4-10.5-6.4h-0.7C4.6,18-0.4,23.6,0,30.1s6,11.5,12.5,11.1c3.4-0.2,6.6-1.9,8.6-4.5l7.2-9.9l1.5-2.1l4.7-6.5l1.2-1.6C33.4,13.9,29.3,14.5,27.2,17.4z"/>
  </g>
</svg>
