<!-- Ultra-simplified Chapa icon for 16x16 browser tabs -->
<svg version="1.1" xmlns="http://www.w3.org/2000/svg" viewBox="0 0 16 16" width="16" height="16">
  <rect width="16" height="16" fill="white" rx="2"/>
  <g transform="scale(0.35) translate(1, 1)">
    <path fill="#8dc63f" d="M11.8,26.2h23.5c0,3.6-2.9,6.5-6.5,6.5h-17c-1.8,0-3.3-1.5-3.3-3.3C8.6,27.7,10,26.2,11.8,26.2z"/>
    <path fill="#7dc400" d="M27.2,17.4L22.4,24l-6.4,8.8c-1.9,2.2-5.3,2.5-7.5,0.6S5.9,28.2,7.8,26c1-1.1,2.4-1.8,3.9-1.9h10.7c-2-3.9-6.1-6.4-10.5-6.4C4.6,18-0.4,23.6,0,30.1s6,11.5,12.5,11.1c3.4-0.2,6.6-1.9,8.6-4.5l13.1-18.1C33.4,13.9,29.3,14.5,27.2,17.4z"/>
  </g>
</svg>
